<svg xml:space="preserve" data-sanitized-enable-background="new 0 0 1212 430" viewBox="0 0 1212 430" height="430px" width="1212px" y="0px" x="0px" xmlns:xlink="http://www.w3.org/1999/xlink" xmlns="http://www.w3.org/2000/svg" id="Layer_1" version="1.1">
<g>
	<path d="M3.271,32.382h146.627h146.628v244.777C291.595,375.11,190.839,391.317,149.898,425
		C108.959,391.317,8.202,375.11,3.271,277.159V32.382z M149.93,387.58c17.955-16.076,35.374-57.726,21.531-83.685
		c-22.881-42.914-69.101,4.414-37.992,61.613C137.357,372.652,144.662,384.302,149.93,387.58 M39.148,195.52
		c1.999,14.771,18.047,37.434,29.652,46.573c6.922,5.451,14.094,10.647,24.925,13.089c39.378,8.884,48.453-32.541,10.031-53.248
		C86.002,192.366,60.936,189.731,39.148,195.52 M39.802,323.096c7.971,3.424,25.518,3.487,34.611,2.317
		c19.387-2.496,39.257-10.326,49.273-26.84c5.818-9.592,7.797-20.408,0.098-28.958c-14.139-15.698-42.645-4.179-54.343,6.446
		c-4.127,3.746-5.786,5.185-9.579,9.479C52.619,293.727,39.981,313.049,39.802,323.096 M149.931,131.472
		c-4.286,2.118-13.379,15.578-16.424,21.712c-9.038,18.201-15.298,41.554-5.811,61.158c10.292,21.259,31.256,23.94,43.632,0.901
		C185.185,189.446,168.942,149.151,149.931,131.472 M260.28,323.26c-1.653-11.565-12.306-28.985-19.982-37.44
		c-1.631-1.797-2.544-3.172-4.311-4.93c-1.854-1.838-3.334-2.816-5.266-4.554c-14.784-13.321-41.901-21.014-54.649-6.724
		C158,289.872,190.941,337.448,260.28,323.26 M260.733,195.521c-27.798-7.635-68.848-1.091-84.288,24.262
		c-18.397,30.21,17.078,52.151,54.313,22.587C242.593,232.973,258.669,210.652,260.733,195.521" fill="#F37920"></path>
	<rect height="3.319" width="842.409" y="238.91" x="347.225"></rect>
	<polygon points="1143.454,110.083 1131.479,110.083 1131.479,66.018 1143.223,66.018 1143.223,39.915 1189.584,30.487 
		1189.584,66.018 1210.208,66.018 1210.208,110.083 1189.551,110.083 1189.551,196.352 1143.454,196.352"></polygon>
	<path d="M1036.903,122.846v73.507h-46.098V66.018h35.507l6.973,9.932c9.423-6.77,22.875-11.781,34.058-11.781
		c34.364,0,52.222,27.289,52.222,59.518v72.666H1073.6v-67.94c0-10.627-5.153-20.897-16.936-20.897
		C1047.449,107.514,1038.931,113.739,1036.903,122.846"></path>
	<path d="M922.631,131.529l-0.472-4.668c-2.081-10.428-10.586-17.497-21.254-17.497c-12.956,0-21.959,9.728-21.959,22.541
		c0,12.877,8.756,21.822,21.659,21.822c12.73,0,22.025-8.998,22.025-21.822V131.529L922.631,131.529z M966.099,138.976v57.376
		h-35.187l-3.311-5.403c-8.13,5.753-17.645,8.176-27.695,8.176c-37.169,0-67.056-30.803-67.056-67.803
		c0-36.976,30.091-67.154,67.056-67.154c9.851,0,19.229,2.352,27.275,7.924l4.962-6.075h34.056v72.958H966.099z"></path>
	<path d="M732.618,73.83c8.99-5.592,20.794-9.662,30.806-9.662c34.4,0,52.222,27.339,52.222,59.587v72.596h-45.965V128.48
		c0-10.625-5.152-20.898-16.937-20.898c-10.287,0-20.126,8.268-20.126,18.845v69.925h-45.566V30.483h45.566V73.83z"></path>
	<rect height="130.334" width="45.965" y="66.018" x="616.315"></rect>
	<path d="M638.999,60.681c-14.603,0-26.875-11.647-26.875-26.344c0-14.922,12.295-26.552,27.074-26.552
		c14.715,0,26.873,11.753,26.873,26.552C666.071,49.313,653.801,60.681,638.999,60.681"></path>
	<path d="M546.438,130.765v65.587h-46.097V66.018h35.486l7.553,10.479c7.115-8.444,16.849-12.533,28.273-12.533
		c11.029,0,20.56,4.007,29.504,10.248l1.956,1.365l-20.682,39.997l-2.547-1.765c-4.196-2.906-8.983-5.472-14.218-5.472
		C553.007,108.336,547.225,119.498,546.438,130.765"></path>
	<path d="M432.164,131.529l-0.472-4.668c-2.08-10.428-10.584-17.497-21.252-17.497c-12.958,0-21.957,9.728-21.957,22.541
		c0,12.877,8.755,21.822,21.657,21.822c12.731,0,22.023-8.998,22.023-21.822L432.164,131.529L432.164,131.529z M475.633,138.976
		v57.376h-35.186l-3.31-5.403c-8.13,5.753-17.646,8.176-27.696,8.176c-37.17,0-67.055-30.803-67.055-67.803
		c0-36.976,30.09-67.154,67.055-67.154c9.852,0,19.228,2.352,27.275,7.924l4.963-6.075h34.053v72.958H475.633z"></path>
	<path d="M365.391,277.775c3.185,0,5.953,0.417,8.31,1.257c2.355,0.84,4.557,2.119,6.607,3.837l-4.251,4.494
		c-1.617-1.237-3.238-2.139-4.875-2.697c-1.636-0.56-3.391-0.84-5.264-0.84c-2.093,0-3.783,0.429-5.072,1.288
		c-1.285,0.859-1.929,2.068-1.929,3.629c0,1.039,0.251,1.896,0.752,2.576c0.502,0.678,1.405,1.318,2.712,1.918
		c1.31,0.6,3.25,1.258,5.823,1.979c4.45,1.279,7.795,2.866,10.043,4.764c2.245,1.898,3.369,4.665,3.369,8.303
		c0,2.477-0.688,4.673-2.062,6.592c-1.375,1.917-3.346,3.415-5.921,4.494c-2.572,1.079-5.626,1.617-9.158,1.617
		c-3.445,0-6.53-0.508-9.257-1.529c-2.727-1.019-5.069-2.407-7.034-4.164l4.45-4.555c1.746,1.357,3.555,2.387,5.431,3.086
		c1.874,0.7,3.947,1.05,6.214,1.05c2.485,0,4.495-0.541,6.019-1.619c1.527-1.079,2.288-2.597,2.288-4.556
		c0-1.197-0.261-2.188-0.785-2.965c-0.521-0.779-1.417-1.48-2.683-2.099c-1.262-0.618-3.095-1.269-5.494-1.947
		c-4.8-1.358-8.264-2.998-10.403-4.915c-2.136-1.918-3.205-4.436-3.205-7.553c0-2.277,0.657-4.273,1.961-5.991
		c1.312-1.72,3.13-3.058,5.465-4.017C359.776,278.253,362.425,277.775,365.391,277.775 M421.978,306.542
		c0,2.797-0.642,5.286-1.928,7.463c-1.288,2.178-3.207,3.887-5.757,5.123c-2.554,1.24-5.617,1.859-9.192,1.859
		c-5.407,0-9.551-1.307-12.429-3.925c-2.881-2.618-4.317-6.125-4.317-10.521v-27.867h8.633v27.447c0,2.918,0.665,5.098,1.995,6.535
		c1.331,1.438,3.37,2.157,6.118,2.157c2.791,0,4.853-0.719,6.183-2.157c1.33-1.438,1.996-3.617,1.996-6.535v-27.447h8.699V306.542
		L421.978,306.542z M449.192,277.775c2.748,0,5.146,0.358,7.198,1.079c2.047,0.718,4.053,1.816,6.019,3.295l-4.382,4.675
		c-2.662-1.959-5.455-2.938-8.375-2.938c-3.359,0-6.051,1.238-8.08,3.716c-2.029,2.479-3.045,6.375-3.045,11.688
		c0,5.194,1.007,9.05,3.012,11.568c2.006,2.517,4.711,3.775,8.112,3.775c1.787,0,3.378-0.289,4.775-0.868
		c1.394-0.581,2.879-1.41,4.448-2.49l4.057,4.677c-1.527,1.438-3.455,2.637-5.791,3.596c-2.333,0.96-4.939,1.438-7.819,1.438
		c-3.925,0-7.391-0.838-10.4-2.517c-3.011-1.678-5.342-4.144-7-7.401c-1.656-3.256-2.484-7.183-2.484-11.777
		c0-4.515,0.862-8.391,2.584-11.628c1.723-3.235,4.076-5.692,7.065-7.371C442.073,278.613,445.442,277.775,449.192,277.775
		 M486.354,277.775c2.744,0,5.145,0.358,7.195,1.079c2.05,0.718,4.055,1.816,6.018,3.295l-4.381,4.675
		c-2.662-1.959-5.454-2.938-8.375-2.938c-3.356,0-6.051,1.238-8.08,3.716c-2.028,2.479-3.042,6.375-3.042,11.688
		c0,5.194,1.003,9.05,3.009,11.568c2.005,2.517,4.711,3.775,8.112,3.775c1.787,0,3.381-0.289,4.777-0.868
		c1.395-0.581,2.877-1.41,4.446-2.49l4.058,4.677c-1.527,1.438-3.455,2.637-5.791,3.596c-2.334,0.96-4.938,1.438-7.817,1.438
		c-3.923,0-7.393-0.838-10.403-2.517c-3.008-1.678-5.34-4.144-6.998-7.401c-1.658-3.256-2.488-7.183-2.488-11.777
		c0-4.515,0.862-8.391,2.585-11.628c1.723-3.235,4.078-5.692,7.066-7.371C479.232,278.613,482.601,277.775,486.354,277.775
		 M532.474,278.674l-0.918,5.874h-16.68v11.566h14.523v5.873h-14.523v12.166h17.859v5.935h-26.496v-41.415L532.474,278.674
		L532.474,278.674z M553.929,277.775c3.188,0,5.954,0.417,8.312,1.257c2.354,0.84,4.558,2.119,6.605,3.837l-4.251,4.494
		c-1.616-1.237-3.239-2.139-4.875-2.697c-1.634-0.56-3.389-0.84-5.265-0.84c-2.094,0-3.784,0.429-5.071,1.288
		c-1.286,0.859-1.928,2.068-1.928,3.629c0,1.039,0.25,1.896,0.752,2.576c0.502,0.678,1.406,1.318,2.713,1.918
		c1.309,0.6,3.25,1.258,5.826,1.979c4.447,1.279,7.792,2.866,10.041,4.764c2.246,1.898,3.368,4.665,3.368,8.303
		c0,2.477-0.689,4.673-2.062,6.592c-1.373,1.917-3.345,3.415-5.917,4.494c-2.575,1.079-5.629,1.617-9.16,1.617
		c-3.445,0-6.531-0.508-9.258-1.529c-2.727-1.019-5.069-2.407-7.032-4.164l4.447-4.555c1.746,1.357,3.555,2.387,5.43,3.086
		c1.878,0.7,3.949,1.05,6.218,1.05c2.483,0,4.492-0.541,6.02-1.619c1.526-1.079,2.286-2.597,2.286-4.556
		c0-1.197-0.263-2.188-0.785-2.965c-0.522-0.779-1.417-1.48-2.684-2.099c-1.263-0.618-3.096-1.269-5.494-1.947
		c-4.798-1.358-8.265-2.998-10.401-4.915c-2.136-1.918-3.208-4.436-3.208-7.553c0-2.277,0.656-4.273,1.963-5.991
		c1.309-1.72,3.129-3.058,5.463-4.017C548.317,278.253,550.964,277.775,553.929,277.775 M590.564,277.775
		c3.185,0,5.954,0.417,8.309,1.257c2.355,0.84,4.558,2.119,6.607,3.837l-4.252,4.494c-1.614-1.237-3.238-2.139-4.875-2.697
		c-1.636-0.56-3.391-0.84-5.263-0.84c-2.095,0-3.785,0.429-5.071,1.288c-1.287,0.859-1.932,2.068-1.932,3.629
		c0,1.039,0.251,1.896,0.751,2.576c0.504,0.678,1.408,1.318,2.715,1.918c1.31,0.6,3.25,1.258,5.823,1.979
		c4.451,1.279,7.796,2.866,10.044,4.764c2.244,1.898,3.368,4.665,3.368,8.303c0,2.477-0.688,4.673-2.061,6.592
		c-1.375,1.917-3.348,3.415-5.921,4.494s-5.625,1.617-9.158,1.617c-3.447,0-6.53-0.508-9.257-1.529
		c-2.727-1.019-5.069-2.407-7.035-4.164l4.451-4.555c1.745,1.357,3.555,2.387,5.431,3.086c1.875,0.7,3.947,1.05,6.215,1.05
		c2.483,0,4.492-0.541,6.017-1.619c1.528-1.079,2.289-2.597,2.289-4.556c0-1.197-0.261-2.188-0.784-2.965
		c-0.524-0.779-1.417-1.48-2.683-2.099c-1.262-0.618-3.095-1.269-5.494-1.947c-4.799-1.358-8.266-2.998-10.403-4.915
		c-2.136-1.918-3.205-4.436-3.205-7.553c0-2.277,0.654-4.273,1.961-5.991c1.31-1.72,3.13-3.058,5.466-4.017
		C584.949,278.253,587.6,277.775,590.564,277.775 M654.479,320.089l-2.814-9.592h-14.979l-2.813,9.592h-8.963l14.064-41.415h10.664
		l13.999,41.415H654.479z M638.385,304.505h11.515l-5.756-19.777L638.385,304.505z M702.038,320.089h-11.188l-15.501-33.505
		c0.392,2.958,0.686,5.636,0.883,8.03c0.195,2.398,0.293,5.256,0.293,8.569v16.904h-7.851v-41.415H679.6l15.767,33.563
		c-0.263-1.6-0.522-3.705-0.785-6.321c-0.261-2.618-0.391-5.226-0.391-7.823v-19.418h7.848V320.089L702.038,320.089z
		 M723.761,278.674c7.02,0,12.637,1.456,16.844,4.374c4.208,2.916,6.315,8.291,6.315,16.122c0,7.673-2.073,13.077-6.216,16.214
		c-4.144,3.136-9.398,4.705-15.769,4.705h-12.297v-41.415H723.761z M721.274,284.606v29.547h4.251c3.838,0,6.848-1.088,9.03-3.266
		c2.178-2.176,3.27-6.082,3.27-11.718c0-3.915-0.556-6.94-1.667-9.08c-1.113-2.136-2.574-3.585-4.385-4.344
		c-1.81-0.759-3.979-1.14-6.51-1.14H721.274L721.274,284.606z M804.748,320.089h-11.186l-15.506-33.505
		c0.392,2.958,0.688,5.636,0.887,8.03c0.195,2.398,0.29,5.256,0.29,8.569v16.904h-7.852v-41.415h10.929l15.766,33.563
		c-0.263-1.6-0.524-3.705-0.784-6.321c-0.264-2.618-0.395-5.226-0.395-7.823v-19.418h7.851V320.089z M832.684,277.775
		c4.054,0,7.566,0.838,10.533,2.517c2.966,1.678,5.242,4.135,6.833,7.371c1.592,3.237,2.388,7.131,2.388,11.686
		c0,4.516-0.805,8.394-2.418,11.629c-1.615,3.236-3.903,5.713-6.87,7.432c-2.966,1.719-6.454,2.577-10.467,2.577
		c-4.056,0-7.566-0.839-10.533-2.517c-2.964-1.678-5.253-4.137-6.866-7.371c-1.612-3.236-2.421-7.134-2.421-11.688
		c0-4.476,0.809-8.342,2.421-11.596c1.613-3.258,3.912-5.747,6.898-7.465C825.172,278.634,828.669,277.775,832.684,277.775
		 M832.684,283.827c-3.49,0-6.15,1.248-7.98,3.747c-1.832,2.497-2.75,6.442-2.75,11.836c0,10.35,3.579,15.522,10.73,15.522
		c3.489,0,6.137-1.237,7.948-3.715c1.811-2.479,2.713-6.435,2.713-11.869c0-5.393-0.902-9.328-2.713-11.806
		C838.82,285.065,836.173,283.827,832.684,283.827 M889.597,278.674l-0.917,6.292h-11.775v35.123h-8.7v-35.123h-12.168v-6.292
		H889.597z M919.95,320.089v-18.521h-16.093v18.521h-8.636v-41.415h8.636v16.602h16.093v-16.602h8.703v41.415H919.95z
		 M947.821,320.089h-8.638v-41.415h8.638V320.089z M991.784,320.089h-11.188l-15.504-33.505c0.393,2.958,0.688,5.636,0.884,8.03
		c0.196,2.398,0.295,5.256,0.295,8.569v16.904h-7.852v-41.415h10.926l15.767,33.563c-0.262-1.6-0.525-3.705-0.785-6.321
		c-0.261-2.618-0.392-5.226-0.392-7.823v-19.418h7.849V320.089L991.784,320.089z M1020.636,277.775c2.966,0,5.595,0.408,7.882,1.228
		c2.289,0.818,4.46,2.025,6.512,3.625l-4.648,4.438c-1.611-1.162-3.129-2-4.543-2.518c-1.418-0.521-3.063-0.779-4.94-0.779
		c-3.491,0-6.348,1.275-8.571,3.834c-2.222,2.558-3.335,6.473-3.335,11.746c0,5.516,0.882,9.492,2.649,11.928
		c1.765,2.439,4.46,3.656,8.08,3.656c2.748,0,5.146-0.539,7.193-1.617v-10.789h-6.801l-0.918-5.873h16.227v20.258
		c-4.887,2.718-10.078,4.076-15.569,4.076c-6.455,0-11.396-1.837-14.821-5.515c-3.42-3.675-5.133-9.048-5.133-16.124
		c0-4.513,0.927-8.398,2.78-11.655c1.853-3.258,4.35-5.724,7.489-7.401C1013.31,278.613,1016.797,277.775,1020.636,277.775
		 M1069.112,278.674v34.94h18.12l-0.981,6.475h-25.776v-41.415H1069.112z M1119.812,278.674l-0.919,5.874h-16.682v11.566h14.525
		v5.873h-14.525v12.166h17.863v5.935h-26.498v-41.415L1119.812,278.674L1119.812,278.674z M1141.27,277.775
		c3.182,0,5.949,0.417,8.309,1.257c2.354,0.84,4.559,2.119,6.605,3.837l-4.251,4.494c-1.615-1.237-3.238-2.139-4.873-2.697
		c-1.638-0.56-3.394-0.84-5.265-0.84c-2.097,0-3.785,0.429-5.073,1.288c-1.286,0.859-1.93,2.068-1.93,3.629
		c0,1.039,0.251,1.896,0.754,2.576c0.502,0.678,1.406,1.318,2.715,1.918c1.31,0.6,3.247,1.258,5.822,1.979
		c4.445,1.279,7.796,2.866,10.04,4.764c2.247,1.898,3.37,4.665,3.37,8.303c0,2.477-0.688,4.673-2.063,6.592
		c-1.372,1.917-3.345,3.415-5.917,4.494c-2.575,1.079-5.628,1.617-9.159,1.617c-3.447,0-6.533-0.508-9.259-1.529
		c-2.728-1.019-5.069-2.407-7.032-4.164l4.449-4.555c1.744,1.357,3.554,2.387,5.431,3.086c1.876,0.7,3.946,1.05,6.216,1.05
		c2.483,0,4.492-0.541,6.018-1.619c1.527-1.079,2.289-2.597,2.289-4.556c0-1.197-0.263-2.188-0.786-2.965
		c-0.521-0.779-1.417-1.48-2.681-2.099c-1.267-0.618-3.1-1.269-5.497-1.947c-4.797-1.358-8.262-2.998-10.399-4.915
		c-2.137-1.918-3.206-4.436-3.206-7.553c0-2.277,0.654-4.273,1.96-5.991c1.311-1.72,3.129-3.058,5.465-4.017
		C1135.653,278.253,1138.302,277.775,1141.27,277.775 M1177.902,277.775c3.186,0,5.952,0.417,8.312,1.257
		c2.354,0.84,4.555,2.119,6.604,3.837l-4.25,4.494c-1.615-1.237-3.238-2.139-4.875-2.697c-1.638-0.56-3.394-0.84-5.264-0.84
		c-2.096,0-3.786,0.429-5.072,1.288s-1.929,2.068-1.929,3.629c0,1.039,0.249,1.896,0.753,2.576c0.5,0.678,1.405,1.318,2.712,1.918
		c1.31,0.6,3.25,1.258,5.822,1.979c4.45,1.279,7.796,2.866,10.044,4.764c2.243,1.898,3.368,4.665,3.368,8.303
		c0,2.477-0.688,4.673-2.062,6.592c-1.375,1.917-3.345,3.415-5.922,4.494c-2.571,1.079-5.627,1.617-9.157,1.617
		c-3.445,0-6.531-0.508-9.258-1.529c-2.728-1.019-5.068-2.407-7.034-4.164l4.45-4.555c1.746,1.357,3.556,2.387,5.43,3.086
		c1.875,0.7,3.949,1.05,6.216,1.05c2.486,0,4.494-0.541,6.019-1.619c1.528-1.079,2.291-2.597,2.291-4.556
		c0-1.197-0.265-2.188-0.787-2.965c-0.52-0.779-1.414-1.48-2.683-2.099c-1.265-0.618-3.097-1.269-5.493-1.947
		c-4.802-1.358-8.266-2.998-10.403-4.915c-2.132-1.918-3.204-4.436-3.204-7.553c0-2.277,0.653-4.273,1.961-5.991
		c1.312-1.72,3.13-3.058,5.464-4.017C1172.289,278.253,1174.937,277.775,1177.902,277.775" fill="#231F20"></path>
</g>
</svg>
